<?xml version="1.0" encoding="UTF-8" standalone="no"?>
<svg width="100px" height="100px" viewBox="0 0 100 100" version="1.1" xmlns="http://www.w3.org/2000/svg" xmlns:xlink="http://www.w3.org/1999/xlink">
    <!-- Generator: Sketch 41.2 (35397) - http://www.bohemiancoding.com/sketch -->
    <title>arrowButton_right_hover</title>
    <desc>Created with Sketch.</desc>
    <defs></defs>
    <g id="02-Elements" stroke="none" stroke-width="1" fill="none" fill-rule="evenodd">
        <g id="Artboard" transform="translate(-27.000000, -101.000000)">
            <circle id="Oval" fill="#F9FAFD" cx="52" cy="126" r="20"></circle>
            <circle id="Oval-Copy-2" fill="#F9FAFD" cx="102" cy="126" r="20"></circle>
            <circle id="Oval-Copy" fill="#7FA2D4" cx="52" cy="176" r="20"></circle>
            <circle id="Oval-Copy-3" fill="#7FA2D4" cx="102" cy="176" r="20"></circle>
            <path d="M49.6153996,126.295206 L54.3292012,129.610073 C54.5522209,129.772269 54.7194832,129.924326 54.830993,130.066247 C54.9425028,130.208169 54.9982569,130.400774 54.9982569,130.644068 L54.9982569,131.830121 C54.9982569,132.053141 54.9272972,132.230541 54.7853756,132.362325 C54.6434539,132.494109 54.4812602,132.56 54.2987896,132.56 C54.0960444,132.56 53.9034394,132.489041 53.7209687,132.347119 L47.6994673,127.937434 C47.5169967,127.795512 47.354803,127.633318 47.2128814,127.450848 C47.0709597,127.268377 47,127.065635 47,126.842615 L47,125.747797 C47,125.524777 47.0608226,125.327104 47.1824697,125.15477 C47.3041168,124.982437 47.4663105,124.815174 47.6690557,124.652978 L53.7209687,120.212881 C53.9034394,120.07096 54.0960444,120 54.2987896,120 C54.4812602,120 54.6434539,120.065891 54.7853756,120.197676 C54.9272972,120.32946 54.9982569,120.506859 54.9982569,120.729879 L54.9982569,121.915932 C54.9982569,122.138952 54.9323657,122.336626 54.8005814,122.508959 C54.668797,122.681292 54.5015348,122.838417 54.2987896,122.980339 L49.6153996,126.295206 Z" id="&lt;" fill="#BFD1E9"></path>
            <path d="M101.6154,126.295206 L106.329201,129.610073 C106.552221,129.772269 106.719483,129.924326 106.830993,130.066247 C106.942503,130.208169 106.998257,130.400774 106.998257,130.644068 L106.998257,131.830121 C106.998257,132.053141 106.927297,132.230541 106.785376,132.362325 C106.643454,132.494109 106.48126,132.56 106.29879,132.56 C106.096044,132.56 105.903439,132.489041 105.720969,132.347119 L99.6994673,127.937434 C99.5169967,127.795512 99.354803,127.633318 99.2128814,127.450848 C99.0709597,127.268377 99,127.065635 99,126.842615 L99,125.747797 C99,125.524777 99.0608226,125.327104 99.1824697,125.15477 C99.3041168,124.982437 99.4663105,124.815174 99.6690557,124.652978 L105.720969,120.212881 C105.903439,120.07096 106.096044,120 106.29879,120 C106.48126,120 106.643454,120.065891 106.785376,120.197676 C106.927297,120.32946 106.998257,120.506859 106.998257,120.729879 L106.998257,121.915932 C106.998257,122.138952 106.932366,122.336626 106.800581,122.508959 C106.668797,122.681292 106.501535,122.838417 106.29879,122.980339 L101.6154,126.295206 Z" id="&lt;-copy-2" fill="#BFD1E9" transform="translate(102.999128, 126.280000) scale(-1, 1) translate(-102.999128, -126.280000) "></path>
            <path d="M49.6153996,176.295206 L54.3292012,179.610073 C54.5522209,179.772269 54.7194832,179.924326 54.830993,180.066247 C54.9425028,180.208169 54.9982569,180.400774 54.9982569,180.644068 L54.9982569,181.830121 C54.9982569,182.053141 54.9272972,182.230541 54.7853756,182.362325 C54.6434539,182.494109 54.4812602,182.56 54.2987896,182.56 C54.0960444,182.56 53.9034394,182.489041 53.7209687,182.347119 L47.6994673,177.937434 C47.5169967,177.795512 47.354803,177.633318 47.2128814,177.450848 C47.0709597,177.268377 47,177.065635 47,176.842615 L47,175.747797 C47,175.524777 47.0608226,175.327104 47.1824697,175.15477 C47.3041168,174.982437 47.4663105,174.815174 47.6690557,174.652978 L53.7209687,170.212881 C53.9034394,170.07096 54.0960444,170 54.2987896,170 C54.4812602,170 54.6434539,170.065891 54.7853756,170.197676 C54.9272972,170.32946 54.9982569,170.506859 54.9982569,170.729879 L54.9982569,171.915932 C54.9982569,172.138952 54.9323657,172.336626 54.8005814,172.508959 C54.668797,172.681292 54.5015348,172.838417 54.2987896,172.980339 L49.6153996,176.295206 Z" id="&lt;-copy" fill="#FFFFFF"></path>
            <path d="M101.6154,176.295206 L106.329201,179.610073 C106.552221,179.772269 106.719483,179.924326 106.830993,180.066247 C106.942503,180.208169 106.998257,180.400774 106.998257,180.644068 L106.998257,181.830121 C106.998257,182.053141 106.927297,182.230541 106.785376,182.362325 C106.643454,182.494109 106.48126,182.56 106.29879,182.56 C106.096044,182.56 105.903439,182.489041 105.720969,182.347119 L99.6994673,177.937434 C99.5169967,177.795512 99.354803,177.633318 99.2128814,177.450848 C99.0709597,177.268377 99,177.065635 99,176.842615 L99,175.747797 C99,175.524777 99.0608226,175.327104 99.1824697,175.15477 C99.3041168,174.982437 99.4663105,174.815174 99.6690557,174.652978 L105.720969,170.212881 C105.903439,170.07096 106.096044,170 106.29879,170 C106.48126,170 106.643454,170.065891 106.785376,170.197676 C106.927297,170.32946 106.998257,170.506859 106.998257,170.729879 L106.998257,171.915932 C106.998257,172.138952 106.932366,172.336626 106.800581,172.508959 C106.668797,172.681292 106.501535,172.838417 106.29879,172.980339 L101.6154,176.295206 Z" id="&lt;-copy-3" fill="#FFFFFF" transform="translate(102.999128, 176.280000) scale(-1, 1) translate(-102.999128, -176.280000) "></path>
        </g>
    </g>
</svg>