<svg width="23" height="72" viewBox="0 0 23 72" fill="none" xmlns="http://www.w3.org/2000/svg">
<g clip-path="url(#clip0_1_49)">
<path d="M12.9008 0.776418C7.03782 0.742138 6.5346 0.748693 5.88018 1.12038C5.09777 1.52485 4.67435 4.58434 3.78632 16.0855C2.97091 26.5481 2.98065 27.0079 3.76151 30.8196C4.70146 35.352 5.37929 36.4429 7.21374 36.5712C8.00588 36.6266 8.69431 36.9669 8.91251 37.4414C9.32174 38.1796 9.43757 43.1136 9.21322 49.3178C9.14452 50.8994 9.22414 52.1573 9.4326 52.1719C9.76614 52.1952 9.49599 56.0585 8.7732 61.6017L8.2975 65.4089L6.94302 65.6064C5.12411 65.8549 4.85944 66.0451 5.39666 66.7506C5.73993 67.2339 5.64493 67.3941 5.04672 67.561C4.57649 67.6951 3.88037 68.0639 3.48189 68.37C2.73246 68.902 2.72665 68.9851 3.40056 69.5332C4.14913 70.2116 8.72944 70.6154 12.8084 70.3997C15.0385 70.2635 15.4699 70.0849 16.7806 68.7155C18.5373 66.9599 18.5432 66.8768 17.7286 65.9432C17.3437 65.4571 16.3575 65.1794 14.7732 65.0686L12.3968 64.9024L12.48 63.1133C12.5468 62.1578 12.5873 59.7812 12.5571 57.8171C12.5269 55.853 12.6873 50.5627 12.9622 46.0317L13.3735 37.7533L14.9906 36.1967C17.5947 33.707 19.0372 31.0528 19.8018 27.3075C20.9445 21.7519 21.9599 15.0186 21.7388 14.5856C21.6699 14.3721 21.7337 11.6633 21.9487 8.58915C22.339 3.60711 22.302 2.93661 21.6524 2.64072C21.2858 2.48986 20.6866 2.07226 20.3706 1.79969C19.4668 0.943346 18.1802 0.769883 12.9008 0.776418ZM19.467 2.73836C20.6984 3.70112 17.8343 3.91828 12.7265 3.2689C8.4051 2.75799 7.73512 2.7529 7.90582 3.3075C8.04645 3.69303 8.73778 3.99185 9.86055 4.1121C10.8166 4.2207 13.0592 4.50275 14.7987 4.79137C17.3691 5.17983 18.167 5.15214 18.9969 4.66749C20.8322 3.58524 20.8982 3.84031 20.3693 9.60582C20.1156 12.6355 19.856 15.7481 19.7649 16.4514C19.7126 17.1992 19.4606 17.8077 19.2105 17.7902C18.9186 17.7698 18.8701 17.2655 19.1008 16.3632C19.5476 14.7664 18.8553 13.8831 17.9876 14.9078C17.1199 15.9325 16.7621 15.657 17.1052 14.3451C17.3834 13.3627 17.2757 13.1047 16.5398 12.8445C16.0482 12.685 15.5838 12.736 15.4859 12.9378C15.1892 13.585 12.0769 13.1587 10.5449 12.3001C7.92494 10.8229 7.77663 11.1464 7.12013 20.5348C6.48106 29.6739 6.6005 31.5607 7.80871 32.8558C10.2251 35.446 14.4609 32.987 16.4113 27.8636C17.019 26.3616 17.5134 24.6846 17.5483 24.1861C17.5802 23.7291 17.838 23.0375 18.1114 22.7226C18.5719 22.1287 18.2503 25.5292 17.567 28.1114C16.6414 31.7619 12.7751 36.1252 10.5655 35.9707C9.89843 35.9241 9.20128 35.7083 8.96856 35.4415C8.77462 35.2193 8.16667 34.9263 7.58879 34.8024C6.72197 34.6166 6.54256 34.1865 6.13317 31.6533C5.86833 30.0484 5.55683 27.3133 5.42579 25.5926C5.13651 21.9406 6.59782 2.84034 7.17758 2.3382C7.93282 1.7231 18.5516 2.04819 19.467 2.73836ZM12.8492 18.8899C12.7068 20.9254 12.4007 22.9077 12.1602 23.3501C11.9198 23.7925 11.7327 24.0717 11.6997 23.9441C11.6027 22.9354 11.9327 15.8202 12.1198 15.5411C12.8595 14.5492 13.1146 15.6941 12.8492 18.8899ZM10.0061 15.8107C10.4832 16.1781 10.3188 20.9255 9.81848 20.8905C9.65172 20.8788 9.42087 19.986 9.37423 18.8556C9.283 17.7639 9.15877 16.5447 9.06275 16.1204C8.86488 15.3553 9.25173 15.2153 10.0061 15.8107ZM11.8033 42.2354C11.2028 49.6239 11.1117 50.3272 10.9566 50.1494C10.879 50.0605 10.778 48.5089 10.7779 46.7139C10.7777 44.9188 10.7 43.0349 10.6514 42.5306C10.5612 42.0234 10.4787 40.8069 10.4233 39.8012C10.2865 38.1636 10.3786 38.0448 11.2124 38.1031C12.1296 38.1673 12.1655 38.2533 11.8033 42.2354ZM10.9596 62.0885C11.0791 63.9754 10.7834 65.207 10.1998 65.1662C10.033 65.1546 9.94467 64.0213 9.99883 62.6476C10.1605 59.7368 10.7286 59.4008 10.9596 62.0885ZM15.683 67.6369C14.9879 68.5902 14.6039 68.6885 11.9094 68.8758C9.97422 68.991 9.81036 68.9378 9.86556 68.1485C9.91494 67.4423 10.263 67.2579 11.9452 67.1667C13.0408 67.0765 14.1364 66.9861 14.3507 66.9175C14.6067 66.8519 15.1128 66.8038 15.5297 66.833C16.1579 66.8352 16.1492 66.9598 15.683 67.6369ZM9.01138 68.381C8.98814 68.7132 6.77658 69.1848 6.50508 68.8736C6.46919 68.7876 6.52832 68.5412 6.71251 68.3037C7.08381 67.787 9.04914 67.8409 9.01138 68.381Z" fill="#FCEAEE"/>
</g>
<defs>
<clipPath id="clip0_1_49">
<rect width="18" height="70" fill="white" transform="translate(4.88297) rotate(4)"/>
</clipPath>
</defs>
</svg>
